<svg xmlns="http://www.w3.org/2000/svg" width="192" height="64" fill="none" viewBox="0 0 192 64">
    <path fill="#891A1C" fill-rule="evenodd" d="M169.297 37.844c0 4.028-3.154 6.355-7.601 6.355-3.154 0-5.171-1.59-6.671-2.724l.362-.567c1.655-2.837 3.051 1.305 5.947 1.305 1.913 0 2.999-.851 2.999-2.837 0-4.142-9.256-4.88-9.256-11.518 0-3.688 3.516-5.56 7.136-5.56 3.154 0 5.119 1.418 6.257 2.553l-1.086 1.816c-.672-.851-2.327-2.327-4.447-2.327-1.5 0-2.534.965-2.534 2.554 0 4.255 8.894 4.482 8.894 10.95zM68.929 25.872c0 5.901-5.688 8-10.083 8h-.673c0-.51 0-1.305.88-1.532 2.533-.68 4.395-2.326 4.395-6.297 0-4.313-1.758-5.958-4.396-5.958h-1.81v23.716H52.02V21.447c0-2.1-1.862-2.213-1.862-2.213v-1.248h9.98c-.051.057 8.79-.454 8.79 7.886zM99.955 33.986l5.326 9.759h-2.999c-2.017 0-3.103-.795-3.775-2.327l-3.413-6.751v-1.305h.414c1.654 0 3.62-.965 3.62-4.596 0-2.894-1.345-4.312-3.207-4.312H93.75v19.29h-4.808V25.419c0-1.702-1.552-1.815-1.552-1.815V22.58h9.463c3.982 0 7.498 1.816 7.498 6.185 0 2.894-2.172 4.425-4.395 5.22zM117.122 39.83c-.569.737-1.81 1.305-2.74 1.305-1.345 0-3.051-1.078-3.051-4.37 0-5.105 5.791-6.637 5.791-6.637v9.702zm-1.654-17.646c-4.241 0-6.102 1.76-7.188 2.61l.517 2.156s2.224-2.496 5.223-2.496c1.706 0 3.102.738 3.102 2.156 0 1.078-.258 1.645-1.706 2.27-2.689 1.134-8.739 2.666-8.739 8.794 0 5.617 4.085 6.525 5.533 6.525 1.913 0 3.671-.852 4.964-2.724.414 1.248.931 2.326 3.361 2.326h1.396V29.333c-.051-3.688-.672-7.149-6.463-7.149zM79.788 39.83c-.569.737-1.81 1.305-2.74 1.305-1.345 0-3.052-1.078-3.052-4.37 0-5.105 5.792-6.637 5.792-6.637v9.702zm-1.655-17.646c-4.24 0-6.102 1.76-7.187 2.61l.517 2.156s2.223-2.496 5.222-2.496c1.707 0 3.103.738 3.103 2.156 0 1.078-.31 1.645-1.706 2.27-2.741 1.134-8.74 2.666-8.74 8.794 0 5.617 4.086 6.525 5.534 6.525 1.913 0 3.67-.852 4.964-2.724.413 1.248.93 2.326 3.36 2.326h1.397V29.333c-.052-3.688-.672-7.149-6.464-7.149zM132.066 41.872h-.982V24.454h.982c3.465 0 6.05 2.213 6.05 8.68 0 6.299-2.12 8.738-6.05 8.738zm1.293-19.29h-8.635v1.02s1.551.114 1.551 1.816v18.327h7.084c5.378 0 10.084-3.007 10.084-10.61 0-7.546-4.551-10.553-10.084-10.553zM177.778 24.454v7.433h5.481v1.872h-5.481v8.113h7.911v1.873H172.969V25.418c0-1.702-1.552-1.815-1.552-1.815V22.58h14.272v1.873h-7.911zM145.563 22.581h6.36v18.44c0 1.532-.828 2.667-2.379 2.667h-2.43v-18.27c0-1.702-1.551-1.815-1.551-1.815V22.58z" clip-rule="evenodd"/>
    <path fill="#F37021" fill-rule="evenodd" d="M0 41.872C0 59.347 20.425 64 20.425 64s20.426-4.653 20.426-22.128V22.128C40.85 4.652 20.425 0 20.425 0S0 4.652 0 22.128v19.744z" clip-rule="evenodd"/>
    <path fill="#fff" fill-rule="evenodd" d="M17.788 37.39c-.155 0-.569 0-1.138-.057V21.447c4.292 0 5.895 2.893 5.895 4.709 0 1.021-.775 1.702-1.396 1.702-.517 0-1.034-.284-1.293-1.021-1.137.17-1.758 1.191-1.758 2.27 0 1.02.62 2.269 2.43 2.269 2.328 0 3.517-2.326 3.517-4.596 0-3.177-2.379-6.638-7.446-6.638V15.83h3.62c4.757 0 8.118 4.312 8.118 10.553.052 4.936-2.844 11.007-10.549 11.007zM8.48 29.333c0-2.61 1.19-5.276 3.258-6.751v13.106c-1.81-1.135-3.258-3.064-3.258-6.355zm11.842-14.978H9.41v.85s2.327.341 2.327 2.951v2.837c-2.844 1.645-4.499 5.05-4.499 8.397 0 3.29 1.345 5.9 3.878 7.546l.621.34v10.157c0 3.63-1.086 4.936-1.81 5.276v.851s6.722-.397 6.722-7.716v-7.149c.466.057 1.19.057 1.19.057 8.273 0 16.133-3.631 16.133-12.54 0-10.723-9.566-11.857-13.651-11.857z" clip-rule="evenodd"/>
    <path fill="#891A1C" fill-rule="evenodd" d="M140.443 52.255c.828.114 1.5.624 1.5 1.646v1.475l-.052.057-.052.056-.051.057-.052.057-.052.057-.051.056H139.978c-.776 0-1.448-.34-1.913-1.021l-.052-.114.569-.567.051.114c.362.453.776.737 1.345.737.517 0 .982-.34.982-.908 0-.737-.724-.907-1.292-.907h-.414l-.155-.511 1.448-1.759h-2.276v-.794h3.362v.51l-1.19 1.76zm-6.05-1.532l-.103 1.419c.258-.114.517-.17.827-.17.983 0 1.81.624 1.81 1.815v1.419l-.052.056-.051.057-.052.057-.052.057-.052.056-.051.057-.052.057-.052.057-.051.056-.052.057-.052.057H134.91c-.724 0-1.344-.34-1.861-.908l-.052-.057.517-.624.104.114c.362.397.827.68 1.344.68.569 0 1.086-.397 1.086-1.078 0-.68-.517-1.02-1.138-1.02-.362 0-.672.113-.982.283l-.052.057-.465-.34.155-2.838h3.051v.795h-2.224v-.17zm-3.257 2.27a1.62 1.62 0 0 1-1.293.624c-.983 0-1.862-.68-1.862-1.816 0-1.191.828-1.985 1.914-1.985.517 0 .982.17 1.396.567.568.624.672 1.362.672 2.213V53.844l-.052.057-.052.056-.051.057-.052.057-.052.057-.051.056-.052.057-.052.057-.052.057-.051.056-.052.057-.052.057-.051.056-.052.057-.052.057-.051.057-.052.056-.052.057-.052.057-.051.057-.052.056-.052.057-.051.057-.052.057-.052.056-.052.057H129.791c-.62 0-1.138-.284-1.603-.68l-.103-.058.465-.68.103.113c.311.34.673.567 1.138.567.879.284 1.293-.737 1.345-1.588zm-5.689-2.213l-.879.284-.206-.738 1.344-.51h.569v5.73h-.776V50.78h-.052zm-7.497-.057v1.589h2.688v.794h-2.688v1.646H121v.794h-3.826v-5.674H121v.795h-3.05v.056zm-4.034 4.937c-1.499 0-2.585-1.305-2.585-2.95 0-1.646 1.086-2.951 2.637-2.951.827 0 1.396.283 2.017.908l.103.113-.517.624-.103-.113c-.414-.454-.88-.738-1.5-.738-1.086 0-1.81.965-1.81 2.1v1.475l.052.056.052.057.051.057.052.057.052.056.051.057.052.057.052.056.052.057.051.057.052.057.052.056.051.057.052.057H114.123c.621 0 1.086-.284 1.5-.738l.103-.056.517.567-.103.114c-.776.51-1.396.85-2.224.85zm-7.601-4.313v4.2h-.776v-5.675h.673l2.947 4.085v-4.085h.776v5.674h-.621l-2.999-4.199zm-2.43-1.475v5.674h-.776v-5.674h.776zm-3.879 2.44c.828.227 1.707.567 1.707 1.645 0 1.135-.879 1.646-1.81 1.646-.827 0-1.5-.284-2.12-.908l-.104-.057.517-.624.104.114c.465.51.93.737 1.603.737.465 0 .982-.227.982-.794 0-.68-.724-.794-1.189-.908-.879-.227-1.758-.567-1.758-1.702 0-1.078.879-1.589 1.758-1.589.724 0 1.241.227 1.81.681l.103.057-.465.68-.103-.056c-.414-.34-.828-.567-1.345-.567-.414 0-.93.227-.93.737v.511h.672l.103.057h.103l.362.34zm-6.774 3.234v-1.078h.88v1.078h-.88zm-3.671 0h-1.81v-5.674h1.81c1.5 0 2.74 1.135 2.74 2.837 0 1.702-1.24 2.837-2.74 2.837zm-7.033-4.199v4.2h-.775v-5.675h.672l2.948 4.085v-4.085h.775v5.674h-.62l-3-4.199zm-5.17-.624v1.589h2.688v.794h-2.688v1.646h3.05v.794h-3.826v-5.674h3.826v.795h-3.05v.056zm-3 3.688v-1.134h-1.5v-.795h2.276v2.327l-.052.056a2.876 2.876 0 0 1-2.068.851c-1.551 0-2.637-1.248-2.637-2.95 0-1.645 1.086-2.95 2.585-2.95.776 0 1.345.226 1.913.737l.104.057-.517.68-.104-.056c-.413-.397-.827-.567-1.448-.567-1.034 0-1.758 1.02-1.758 2.099 0 1.248.673 2.156 1.862 2.156.517-.057.982-.227 1.344-.51zm-8.118-3.688v1.589h2.689v.794H66.24v1.646h3.05v.794h-3.826v-5.674h3.827v.795H66.24v.056zm-4.809 4.029h2.792v.794h-3.568v-5.674h.776v4.88zm-5.843-.624h-2.534l-.569 1.418h-.827l2.378-5.73h.673l2.378 5.73h-.827l-.672-1.418zm74.307-3.518c-.621 0-1.086.454-1.086 1.135 0 .68.517 1.078 1.086 1.078.568 0 1.137-.454 1.137-1.135 0-.68-.517-1.078-1.137-1.078zm-41.368.113v4.029h1.034c1.086 0 1.913-.795 1.913-1.986 0-1.248-.827-2.043-1.913-2.043h-1.034zm-34.232.284l-.93 2.326h1.913l-.983-2.326zM188.895 17.248c1.293 0 2.379 1.192 2.379 2.61 0 1.419-1.086 2.61-2.379 2.61s-2.379-1.191-2.379-2.61c0-1.418 1.086-2.61 2.379-2.61zm0 .284c1.189 0 2.12 1.021 2.12 2.326 0 1.305-.931 2.326-2.12 2.326s-2.12-1.02-2.12-2.326c0-1.305.931-2.326 2.12-2.326z" clip-rule="evenodd"/>
    <path fill="#891A1C" d="M187.654 20.936v-1.645h-.517v-.34h1.396v.34h-.517v1.645h-.362zm1.086 0v-1.929h.517l.31 1.305.311-1.305h.517v1.93h-.31v-1.533l-.362 1.532h-.362l-.362-1.532v1.532h-.259z"/>
</svg>
