<svg id="Layer_1" data-name="Layer 1" xmlns="http://www.w3.org/2000/svg" viewBox="0 0 512 156.12"><defs><style>.cls-1{fill:#891a1c;}.cls-1,.cls-2,.cls-3,.cls-4{fill-rule:evenodd;}.cls-2{fill:#f26f21;}.cls-3{fill:#fff;}.cls-4,.cls-5{fill:#881a1c;}</style></defs><title>Paradise Biryani_Logo</title><path class="cls-1" d="M453.18,270.21c0,9.77-8.46,15.54-20.4,15.54-8.41,0-13.79-3.9-17.81-6.7l1-1.45c4.4-6.88,8.17,3.18,16,3.18,5.15,0,8-2.11,8-7,0-10.12-24.83-11.95-24.83-28,0-9.07,9.47-13.63,19.15-13.63,8.5,0,13.74,3.46,16.68,6.22L448,242.84c-1.79-2.08-6.19-5.73-11.86-5.73-4,0-6.81,2.4-6.81,6.25,0,10.55,23.81,11.15,23.81,26.85Z" transform="translate(0 -177.94)"/><path class="cls-1" d="M184.54,241c0,14.36-15.21,19.45-27,19.45h-1.82c0-1.23,0-3.14,2.39-3.73C165,255,169.85,251,169.85,241.34c0-10.47-4.75-14.56-11.77-14.56h-4.9v57.9h-14V230.3c0-5.08-5-5.36-5-5.36v-3h26.75s23.68-1.23,23.68,19.06Z" transform="translate(0 -177.94)"/><path class="cls-1" d="M267.58,260.86l14.25,23.82h-8.06c-5.39,0-8.27-2-10.16-5.64l-9.15-16.49v-3.18h1.09c4.45,0,9.75-2.33,9.75-11.26,0-7.08-3.65-10.47-8.57-10.47H251v47H238.14V240c0-4.19-4.16-4.41-4.16-4.41v-2.49h25.37c10.61,0,20,4.39,20,15.05,0,7.09-5.8,10.86-11.78,12.75Z" transform="translate(0 -177.94)"/><path class="cls-1" d="M313.48,275.14a10.62,10.62,0,0,1-7.29,3.15c-3.58,0-8.2-2.62-8.2-10.59,0-12.5,15.49-16.17,15.49-16.17v23.61ZM309.07,232c-11.34,0-16.29,4.27-19.19,6.3l1.33,5.29s6-6.09,14-6.09c4.6,0,8.24,1.75,8.24,5.23,0,2.59-.76,4.08-4.58,5.52-7.27,2.74-23.44,6.56-23.44,21.41,0,13.73,10.87,16,14.76,16A15.82,15.82,0,0,0,313.48,279c1.17,3.06,2.47,5.69,9,5.69h3.75V249.5c0-8.94-1.74-17.47-17.21-17.47Z" transform="translate(0 -177.94)"/><path class="cls-1" d="M213.55,275.14a10.6,10.6,0,0,1-7.29,3.15c-3.57,0-8.19-2.62-8.19-10.59,0-12.5,15.48-16.17,15.48-16.17v23.61ZM209.14,232c-11.34,0-16.29,4.27-19.19,6.3l1.33,5.29s6-6.09,14-6.09c4.6,0,8.24,1.75,8.24,5.23,0,2.59-.76,4.08-4.57,5.52-7.28,2.74-23.45,6.56-23.45,21.41,0,13.73,10.87,16,14.76,16A15.82,15.82,0,0,0,213.55,279c1.17,3.06,2.47,5.69,9,5.69h3.75V249.5c0-8.94-1.74-17.47-17.21-17.47Z" transform="translate(0 -177.94)"/><path class="cls-1" d="M353.5,280.09h-2.68V237.64h2.68c9.34,0,16.16,5.42,16.16,21.15,0,15.34-5.67,21.3-16.16,21.3Zm3.49-47H333.84v2.49s4.16.22,4.16,4.41v44.72h19c14.42,0,27-7.39,27-25.89s-12.26-25.73-27-25.73Z" transform="translate(0 -177.94)"/><path class="cls-1" d="M475.9,237.64v18.08h14.67v4.57H475.9v19.8h21.18v4.59h-34V240c0-4.19-4.16-4.41-4.16-4.41v-2.49h38.15v4.58Z" transform="translate(0 -177.94)"/><path class="cls-1" d="M389.59,233.1h17v45c0,3.75-2.28,6.57-6.36,6.57h-6.46V240c0-4.18-4.16-4.42-4.16-4.42V233.1Z" transform="translate(0 -177.94)"/><path class="cls-2" d="M0,280.07c0,42.64,54.62,54,54.62,54s54.64-11.35,54.64-54V231.92c0-42.63-54.63-54-54.63-54S0,189.29,0,231.92v48.15Z" transform="translate(0 -177.94)"/><path class="cls-3" d="M47.58,269.12c-.45,0-1.51,0-3-.16V230.14c11.44,0,15.84,7.1,15.84,11.49a4,4,0,0,1-3.8,4.1,3.52,3.52,0,0,1-3.41-2.52,5.41,5.41,0,0,0-4.69,5.52c0,2.45,1.67,5.54,6.53,5.54,6.22,0,9.44-5.65,9.44-11.24,0-7.77-6.31-16.25-19.91-16.25V216.25h9.72c12.79,0,21.72,10.56,21.72,25.68,0,12.46-7.86,27.19-28.47,27.19Zm-24.9-19.61A19.93,19.93,0,0,1,31.35,233v32c-4.75-2.81-8.67-7.55-8.67-15.53Zm31.65-36.62H25.13V215s6.22.86,6.22,7.18v6.89c-7.67,4-12,12.3-12,20.42S22.92,264,29.7,268c.54.32,1.1.61,1.65.88v24.76c0,8.88-2.93,12.1-4.78,12.94v2.12s18-1,18-18.85V272.35c1.22.1,3.12.12,3.2.12,22.16,0,43.13-8.83,43.13-30.54,0-26.21-25.61-29-36.61-29Z" transform="translate(0 -177.94)"/><path class="cls-1" d="M375.92,305.45c2.15.33,4.05,1.52,4.05,4v.47l0,.11v.12l0,.11,0,.11,0,.11,0,.11,0,.1,0,.11,0,.1,0,.11,0,.1,0,.1-.05.1-.05.09-.05.1-.05.09-.06.09-.06.09-.06.09-.06.09-.07.08-.07.09-.07.08-.07.08-.07.07-.08.08-.08.07-.08.08-.08.06-.08.07-.09.07-.08.06-.09.07-.09.06L378,313l-.1.06-.09.06-.1.05-.1.05-.1,0-.1.05-.1,0-.11,0-.1,0-.11,0-.11,0-.1,0-.11,0-.12,0-.11,0-.11,0-.12,0-.11,0-.12,0h-.71a6.33,6.33,0,0,1-5.18-2.48l-.17-.23,1.53-1.37.2.25a4.5,4.5,0,0,0,3.64,1.85,2.35,2.35,0,0,0,2.58-2.28c0-1.79-1.94-2.26-3.4-2.26h-1.07l-.43-1.27,3.85-4.33H370.7v-2h9.06v1.52l-3.84,4.27Zm-16.16-3.79-.23,3.45a6.27,6.27,0,0,1,2.27-.42c2.64,0,4.89,1.58,4.89,4.38v.63l0,.12,0,.13,0,.12,0,.11,0,.12,0,.12,0,.11,0,.12,0,.11,0,.11,0,.1-.05.11-.05.1,0,.11-.06.1-.05.1-.06.1-.07.09-.06.1-.07.09-.07.09-.07.09-.08.08-.07.09-.08.08-.08.08-.09.08-.08.07-.09.08-.09.07-.09.07-.09.07-.1.06-.1.06-.1.07-.1.05-.1.06-.11.05-.1.06-.11,0-.11.05-.11.05-.12,0-.11,0-.12,0-.12,0-.11,0-.13,0-.12,0-.12,0-.13,0-.12,0h-.13l-.13,0h-.66a7,7,0,0,1-4.94-2.19l-.21-.21,1.39-1.52.23.22a5.32,5.32,0,0,0,3.55,1.72,2.66,2.66,0,0,0,2.89-2.64c0-1.68-1.45-2.49-3-2.49a5.42,5.42,0,0,0-2.64.72l-.16.09-1.3-.86.4-6.92h8.22v2ZM351,307.23a4.5,4.5,0,0,1-3.4,1.46c-2.65,0-4.92-1.65-4.92-4.43a4.82,4.82,0,0,1,5.07-4.82,5,5,0,0,1,3.7,1.45,7.06,7.06,0,0,1,1.73,5.36v.6l0,.2v.19l0,.19,0,.19,0,.19,0,.19,0,.18,0,.18,0,.18,0,.18-.05.18,0,.17-.05.17-.05.17-.06.17-.06.16-.06.16-.06.16-.07.15-.07.15-.07.15-.08.15-.07.15-.08.14-.09.14-.08.13-.09.13-.09.13-.1.13-.09.12-.1.13-.11.11-.1.12-.11.11-.11.1-.11.11-.11.1-.12.1-.12.09-.12.09-.12.08-.13.09L350,313l-.13.08-.13.07-.14.07-.13.06-.14.06-.14.05-.15.05-.14,0-.15,0-.15,0-.15,0-.15,0-.15,0H348l-.15,0h-.48a6.41,6.41,0,0,1-4.28-1.7l-.22-.18,1.24-1.66.25.22a4.5,4.5,0,0,0,3.05,1.34c2.39,0,3.39-2.43,3.59-4.53Zm-15.27-5.39-2.4.75-.53-1.79,3.56-1.23h1.46v13.94h-2.09V301.84Zm-20-.2v3.9H323v2h-7.23v4h8.17v2H313.64V299.66h10.18v2Zm-10.83,12.1a7.15,7.15,0,0,1,0-14.3,7.17,7.17,0,0,1,5.37,2.18l.23.21-1.44,1.55-.23-.22a5.41,5.41,0,0,0-3.95-1.73,4.89,4.89,0,0,0-4.82,5.14v.67l0,.13,0,.13,0,.13,0,.13,0,.13,0,.12,0,.12,0,.13,0,.12,0,.12,0,.11.05.12,0,.11.05.12.05.11.06.11.06.1.06.11.06.1.07.11.06.1.07.09.07.1.08.09.07.1.08.09.08.09.08.08.09.09.08.08.09.08.09.07.09.08.09.07.1.07.09.07.1.06.1.06.1.06.1.06.11.06.11.05.1.05.11,0,.11.05.12,0,.11,0,.11,0,.12,0,.12,0,.12,0,.12,0,.12,0h.12l.12,0h.51a5.44,5.44,0,0,0,4.06-1.83l.22-.2,1.41,1.38-.21.22a7.18,7.18,0,0,1-5.51,2.42Zm-20.37-10.5v10.27h-2.07V299.66h1.86l7.88,10v-10h2.07v13.85h-1.64l-8.1-10.27Zm-6.46-3.58v13.85H276V299.66Zm-10.36,5.91c2.25.49,4.55,1.37,4.55,4.06s-2.34,4.07-4.82,4.07a8.09,8.09,0,0,1-5.62-2.19l-.22-.2,1.32-1.57.24.21a6,6,0,0,0,4.33,1.8c1.23,0,2.65-.55,2.65-2,0-1.63-1.91-1.95-3.2-2.23-2.38-.51-4.69-1.32-4.69-4.14,0-2.56,2.32-3.94,4.66-3.94a7.21,7.21,0,0,1,4.84,1.7l.23.18L270.75,303l-.24-.2a5.53,5.53,0,0,0-3.63-1.37c-1.13,0-2.52.53-2.51,1.85v.35l0,.09v0l0,.09,0,.08,0,0,0,.08,0,0,0,.08,0,0,.05.07,0,0,0,0,.06.07,0,0,0,0,0,0,0,0,0,0,.09.07.1.06.12.07.12.07.13.06.07,0,.15.07.16.06.16.06.19.06.09,0,.2.07.21.06.35.08.24.06.39.09Zm-18.11,7.94v-2.6H252v2.6Zm-9.84,0h-4.91V299.66h4.91c4,0,7.34,2.73,7.34,6.91s-3.29,6.94-7.34,6.94Zm-18.91-10.27v10.27h-2.07V299.66h1.86l7.88,10v-10h2.07v13.85H229l-8.09-10.27Zm-13.76-1.6v3.9h7.22v2H207.1v4h8.17v2H205V299.66h10.18v2Zm-8,9v-2.84h-4v-1.95h6.07v5.72l-.1.09a8.31,8.31,0,0,1-5.52,2.1,6.8,6.8,0,0,1-7-7.13,7,7,0,0,1,6.95-7.17,7.26,7.26,0,0,1,5.13,1.83l.24.2-1.37,1.6-.23-.2a5.32,5.32,0,0,0-3.83-1.44,4.87,4.87,0,0,0-4.72,5.14c0,3,1.86,5.21,4.93,5.21a5.93,5.93,0,0,0,3.51-1.16Zm-21.72-9v3.9h7.23v2h-7.23v4h8.17v2H175.23V299.66h10.18v2Zm-12.83,9.88H172v2h-9.56V299.66h2.11v11.86ZM148.79,310H142l-1.57,3.49h-2.2l6.31-13.94h1.79l6.31,13.94h-2.28L148.79,310Zm198.93-8.65a2.74,2.74,0,0,0-2.87,2.82,2.66,2.66,0,0,0,2.95,2.6,2.73,2.73,0,1,0-.08-5.42ZM237,301.66v9.86h2.8a4.94,4.94,0,1,0,0-9.86Zm-91.58.71-2.55,5.69h5.09l-2.54-5.69Z" transform="translate(0 -177.94)"/><path class="cls-4" d="M505.66,220.05a6.35,6.35,0,1,1-6.35,6.34,6.34,6.34,0,0,1,6.35-6.34Zm0,.65a5.7,5.7,0,1,1-5.69,5.69,5.69,5.69,0,0,1,5.69-5.69Z" transform="translate(0 -177.94)"/><path class="cls-5" d="M502.27,229.07v-4h-1.41v-.81h3.78v.81h-1.41v4Zm3,0V224.3h1.44l.85,3.25.85-3.25h1.44v4.77h-.89v-3.75l-.94,3.75h-.93l-.93-3.75v3.75Z" transform="translate(0 -177.94)"/></svg>